{
    "asset" : {
        "generator" : "Khronos glTF Blender I/O v3.4.50",
        "version" : "2.0"
    },
    "extensionsUsed" : [
        "KHR_materials_specular",
        "KHR_materials_ior"
    ],
    "scene" : 0,
    "scenes" : [
        {
            "extras" : {
                "git_lfs_lock_properties" : {
                    "reloading" : 0,
                    "message" : "Checking locks...",
                    "user_name" : "FranciscoMelink",
                    "locked_by" : ""
                }
            },
            "name" : "Scene",
            "nodes" : [
                0
            ]
        }
    ],
    "nodes" : [
        {
            "mesh" : 0,
            "name" : "Level1-col"
        }
    ],
    "materials" : [
        {
            "doubleSided" : true,
            "extensions" : {
                "KHR_materials_specular" : {
                    "specularColorFactor" : [
                        0.237135764977738,
                        0.237135764977738,
                        0.237135764977738
                    ]
                },
                "KHR_materials_ior" : {
                    "ior" : 1.4500000476837158
                }
            },
            "name" : "ground01",
            "normalTexture" : {
                "index" : 0
            },
            "pbrMetallicRoughness" : {
                "baseColorTexture" : {
                    "index" : 1
                },
                "metallicRoughnessTexture" : {
                    "index" : 2
                }
            }
        },
        {
            "doubleSided" : true,
            "extensions" : {
                "KHR_materials_specular" : {
                    "specularColorFactor" : [
                        0.237135764977738,
                        0.237135764977738,
                        0.237135764977738
                    ]
                },
                "KHR_materials_ior" : {
                    "ior" : 1.4500000476837158
                }
            },
            "name" : "groundSides",
            "normalTexture" : {
                "index" : 3
            },
            "pbrMetallicRoughness" : {
                "baseColorTexture" : {
                    "index" : 4
                },
                "metallicRoughnessTexture" : {
                    "index" : 5
                }
            }
        },
        {
            "doubleSided" : true,
            "extensions" : {
                "KHR_materials_specular" : {
                    "specularColorFactor" : [
                        0.237135764977738,
                        0.237135764977738,
                        0.237135764977738
                    ]
                },
                "KHR_materials_ior" : {
                    "ior" : 1.4500000476837158
                }
            },
            "name" : "ground02",
            "normalTexture" : {
                "index" : 6
            },
            "pbrMetallicRoughness" : {
                "baseColorTexture" : {
                    "index" : 7
                },
                "metallicRoughnessTexture" : {
                    "index" : 8
                }
            }
        },
        {
            "doubleSided" : true,
            "extensions" : {
                "KHR_materials_specular" : {
                    "specularColorFactor" : [
                        0.237135764977738,
                        0.237135764977738,
                        0.237135764977738
                    ]
                },
                "KHR_materials_ior" : {
                    "ior" : 1.4500000476837158
                }
            },
            "name" : "ground03",
            "normalTexture" : {
                "index" : 9
            },
            "pbrMetallicRoughness" : {
                "baseColorTexture" : {
                    "index" : 10
                },
                "metallicRoughnessTexture" : {
                    "index" : 11
                }
            }
        },
        {
            "doubleSided" : true,
            "extensions" : {
                "KHR_materials_specular" : {
                    "specularColorFactor" : [
                        0.237135764977738,
                        0.237135764977738,
                        0.237135764977738
                    ]
                },
                "KHR_materials_ior" : {
                    "ior" : 1.4500000476837158
                }
            },
            "name" : "walls",
            "normalTexture" : {
                "index" : 12
            },
            "pbrMetallicRoughness" : {
                "baseColorTexture" : {
                    "index" : 13
                },
                "metallicRoughnessTexture" : {
                    "index" : 14
                }
            }
        }
    ],
    "meshes" : [
        {
            "name" : "Cube.143",
            "primitives" : [
                {
                    "attributes" : {
                        "POSITION" : 0,
                        "TEXCOORD_0" : 1,
                        "NORMAL" : 2
                    },
                    "indices" : 3,
                    "material" : 0
                },
                {
                    "attributes" : {
                        "POSITION" : 4,
                        "TEXCOORD_0" : 5,
                        "NORMAL" : 6
                    },
                    "indices" : 7,
                    "material" : 1
                },
                {
                    "attributes" : {
                        "POSITION" : 8,
                        "TEXCOORD_0" : 9,
                        "NORMAL" : 10
                    },
                    "indices" : 11,
                    "material" : 2
                },
                {
                    "attributes" : {
                        "POSITION" : 12,
                        "TEXCOORD_0" : 13,
                        "NORMAL" : 14
                    },
                    "indices" : 15,
                    "material" : 3
                },
                {
                    "attributes" : {
                        "POSITION" : 16,
                        "TEXCOORD_0" : 17,
                        "NORMAL" : 18
                    },
                    "indices" : 19,
                    "material" : 4
                }
            ]
        }
    ],
    "textures" : [
        {
            "sampler" : 0,
            "source" : 0
        },
        {
            "sampler" : 0,
            "source" : 1
        },
        {
            "sampler" : 0,
            "source" : 2
        },
        {
            "sampler" : 0,
            "source" : 3
        },
        {
            "sampler" : 0,
            "source" : 4
        },
        {
            "sampler" : 0,
            "source" : 5
        },
        {
            "sampler" : 0,
            "source" : 6
        },
        {
            "sampler" : 0,
            "source" : 7
        },
        {
            "sampler" : 0,
            "source" : 8
        },
        {
            "sampler" : 0,
            "source" : 9
        },
        {
            "sampler" : 0,
            "source" : 10
        },
        {
            "sampler" : 0,
            "source" : 11
        },
        {
            "sampler" : 0,
            "source" : 12
        },
        {
            "sampler" : 0,
            "source" : 13
        },
        {
            "sampler" : 0,
            "source" : 14
        }
    ],
    "images" : [
        {
            "mimeType" : "image/png",
            "name" : "ground01_Normal",
            "uri" : "ground01_Normal.png"
        },
        {
            "mimeType" : "image/png",
            "name" : "ground01_Albedo",
            "uri" : "ground01_Albedo.png"
        },
        {
            "mimeType" : "image/png",
            "name" : "ground01_Metallic-ground01_Roughness",
            "uri" : "ground01_Metallic-ground01_Roughness.png"
        },
        {
            "mimeType" : "image/png",
            "name" : "groundSides_Normal",
            "uri" : "groundSides_Normal.png"
        },
        {
            "mimeType" : "image/png",
            "name" : "groundSides_Albedo",
            "uri" : "groundSides_Albedo.png"
        },
        {
            "mimeType" : "image/png",
            "name" : "groundSides_Metallic-groundSides_Roughness",
            "uri" : "groundSides_Metallic-groundSides_Roughness.png"
        },
        {
            "mimeType" : "image/png",
            "name" : "ground02_Normal",
            "uri" : "ground02_Normal.png"
        },
        {
            "mimeType" : "image/png",
            "name" : "ground02_Albedo",
            "uri" : "ground02_Albedo.png"
        },
        {
            "mimeType" : "image/png",
            "name" : "ground02_Metallic-ground02_Roughness",
            "uri" : "ground02_Metallic-ground02_Roughness.png"
        },
        {
            "mimeType" : "image/png",
            "name" : "ground03_Normal",
            "uri" : "ground03_Normal.png"
        },
        {
            "mimeType" : "image/png",
            "name" : "ground03_Albedo",
            "uri" : "ground03_Albedo.png"
        },
        {
            "mimeType" : "image/png",
            "name" : "ground03_Metallic-ground03_Roughness",
            "uri" : "ground03_Metallic-ground03_Roughness.png"
        },
        {
            "mimeType" : "image/png",
            "name" : "walls_Normal",
            "uri" : "walls_Normal.png"
        },
        {
            "mimeType" : "image/png",
            "name" : "walls_Albedo",
            "uri" : "walls_Albedo.png"
        },
        {
            "mimeType" : "image/png",
            "name" : "walls_Metallic-walls_Roughness",
            "uri" : "walls_Metallic-walls_Roughness.png"
        }
    ],
    "accessors" : [
        {
            "bufferView" : 0,
            "componentType" : 5126,
            "count" : 148,
            "max" : [
                18,
                0,
                72
            ],
            "min" : [
                -42,
                0,
                6
            ],
            "type" : "VEC3"
        },
        {
            "bufferView" : 1,
            "componentType" : 5126,
            "count" : 148,
            "type" : "VEC2"
        },
        {
            "bufferView" : 2,
            "componentType" : 5126,
            "count" : 148,
            "type" : "VEC3"
        },
        {
            "bufferView" : 3,
            "componentType" : 5123,
            "count" : 222,
            "type" : "SCALAR"
        },
        {
            "bufferView" : 4,
            "componentType" : 5126,
            "count" : 1264,
            "max" : [
                18,
                0,
                78
            ],
            "min" : [
                -42,
                -2,
                -6
            ],
            "type" : "VEC3"
        },
        {
            "bufferView" : 5,
            "componentType" : 5126,
            "count" : 1264,
            "type" : "VEC2"
        },
        {
            "bufferView" : 6,
            "componentType" : 5126,
            "count" : 1264,
            "type" : "VEC3"
        },
        {
            "bufferView" : 7,
            "componentType" : 5123,
            "count" : 1896,
            "type" : "SCALAR"
        },
        {
            "bufferView" : 8,
            "componentType" : 5126,
            "count" : 108,
            "max" : [
                18,
                0,
                72
            ],
            "min" : [
                -42,
                0,
                -6
            ],
            "type" : "VEC3"
        },
        {
            "bufferView" : 9,
            "componentType" : 5126,
            "count" : 108,
            "type" : "VEC2"
        },
        {
            "bufferView" : 10,
            "componentType" : 5126,
            "count" : 108,
            "type" : "VEC3"
        },
        {
            "bufferView" : 11,
            "componentType" : 5123,
            "count" : 162,
            "type" : "SCALAR"
        },
        {
            "bufferView" : 12,
            "componentType" : 5126,
            "count" : 60,
            "max" : [
                18,
                0,
                78
            ],
            "min" : [
                -42,
                0,
                24
            ],
            "type" : "VEC3"
        },
        {
            "bufferView" : 13,
            "componentType" : 5126,
            "count" : 60,
            "type" : "VEC2"
        },
        {
            "bufferView" : 14,
            "componentType" : 5126,
            "count" : 60,
            "type" : "VEC3"
        },
        {
            "bufferView" : 15,
            "componentType" : 5123,
            "count" : 90,
            "type" : "SCALAR"
        },
        {
            "bufferView" : 16,
            "componentType" : 5126,
            "count" : 1698,
            "max" : [
                18.000003814697266,
                1,
                79.78846740722656
            ],
            "min" : [
                -42,
                -1.1920928955078125e-07,
                -6
            ],
            "type" : "VEC3"
        },
        {
            "bufferView" : 17,
            "componentType" : 5126,
            "count" : 1698,
            "type" : "VEC2"
        },
        {
            "bufferView" : 18,
            "componentType" : 5126,
            "count" : 1698,
            "type" : "VEC3"
        },
        {
            "bufferView" : 19,
            "componentType" : 5123,
            "count" : 5940,
            "type" : "SCALAR"
        }
    ],
    "bufferViews" : [
        {
            "buffer" : 0,
            "byteLength" : 1776,
            "byteOffset" : 0,
            "target" : 34962
        },
        {
            "buffer" : 0,
            "byteLength" : 1184,
            "byteOffset" : 1776,
            "target" : 34962
        },
        {
            "buffer" : 0,
            "byteLength" : 1776,
            "byteOffset" : 2960,
            "target" : 34962
        },
        {
            "buffer" : 0,
            "byteLength" : 444,
            "byteOffset" : 4736,
            "target" : 34963
        },
        {
            "buffer" : 0,
            "byteLength" : 15168,
            "byteOffset" : 5180,
            "target" : 34962
        },
        {
            "buffer" : 0,
            "byteLength" : 10112,
            "byteOffset" : 20348,
            "target" : 34962
        },
        {
            "buffer" : 0,
            "byteLength" : 15168,
            "byteOffset" : 30460,
            "target" : 34962
        },
        {
            "buffer" : 0,
            "byteLength" : 3792,
            "byteOffset" : 45628,
            "target" : 34963
        },
        {
            "buffer" : 0,
            "byteLength" : 1296,
            "byteOffset" : 49420,
            "target" : 34962
        },
        {
            "buffer" : 0,
            "byteLength" : 864,
            "byteOffset" : 50716,
            "target" : 34962
        },
        {
            "buffer" : 0,
            "byteLength" : 1296,
            "byteOffset" : 51580,
            "target" : 34962
        },
        {
            "buffer" : 0,
            "byteLength" : 324,
            "byteOffset" : 52876,
            "target" : 34963
        },
        {
            "buffer" : 0,
            "byteLength" : 720,
            "byteOffset" : 53200,
            "target" : 34962
        },
        {
            "buffer" : 0,
            "byteLength" : 480,
            "byteOffset" : 53920,
            "target" : 34962
        },
        {
            "buffer" : 0,
            "byteLength" : 720,
            "byteOffset" : 54400,
            "target" : 34962
        },
        {
            "buffer" : 0,
            "byteLength" : 180,
            "byteOffset" : 55120,
            "target" : 34963
        },
        {
            "buffer" : 0,
            "byteLength" : 20376,
            "byteOffset" : 55300,
            "target" : 34962
        },
        {
            "buffer" : 0,
            "byteLength" : 13584,
            "byteOffset" : 75676,
            "target" : 34962
        },
        {
            "buffer" : 0,
            "byteLength" : 20376,
            "byteOffset" : 89260,
            "target" : 34962
        },
        {
            "buffer" : 0,
            "byteLength" : 11880,
            "byteOffset" : 109636,
            "target" : 34963
        }
    ],
    "samplers" : [
        {
            "magFilter" : 9729,
            "minFilter" : 9987
        }
    ],
    "buffers" : [
        {
            "byteLength" : 121516,
            "uri" : "TestLevel.bin"
        }
    ]
}
