{
    "asset" : {
        "generator" : "Khronos glTF Blender I/O v1.7.33",
        "version" : "2.0"
    },
    "scene" : 0,
    "scenes" : [
        {
            "name" : "Scene",
            "nodes" : [
                1
            ]
        }
    ],
    "nodes" : [
        {
            "mesh" : 0,
            "name" : "Cylinder.001",
            "translation" : [
                -0.24298858642578125,
                0.3354613780975342,
                -0.0015388056635856628
            ]
        },
        {
            "children" : [
                0
            ],
            "mesh" : 1,
            "name" : "Cylinder",
            "rotation" : [
                0,
                -0.7071068286895752,
                0,
                0.7071068286895752
            ]
        }
    ],
    "materials" : [
        {
            "doubleSided" : true,
            "name" : "Material.002",
            "pbrMetallicRoughness" : {
                "baseColorFactor" : [
                    0.057784244418144226,
                    0.0069002415984869,
                    0.008720087818801403,
                    1
                ],
                "metallicFactor" : 0,
                "roughnessFactor" : 0.7047244310379028
            }
        },
        {
            "doubleSided" : true,
            "name" : "Material.001",
            "pbrMetallicRoughness" : {
                "baseColorFactor" : [
                    0.5277189016342163,
                    0.234534353017807,
                    0.08461035788059235,
                    1
                ],
                "metallicFactor" : 0,
                "roughnessFactor" : 0.5
            }
        }
    ],
    "meshes" : [
        {
            "name" : "Cylinder.001",
            "primitives" : [
                {
                    "attributes" : {
                        "POSITION" : 0,
                        "NORMAL" : 1,
                        "TEXCOORD_0" : 2
                    },
                    "indices" : 3,
                    "material" : 0
                }
            ]
        },
        {
            "name" : "Cylinder",
            "primitives" : [
                {
                    "attributes" : {
                        "POSITION" : 4,
                        "NORMAL" : 5,
                        "TEXCOORD_0" : 6
                    },
                    "indices" : 7,
                    "material" : 1
                },
                {
                    "attributes" : {
                        "POSITION" : 8,
                        "NORMAL" : 9,
                        "TEXCOORD_0" : 10
                    },
                    "indices" : 11,
                    "material" : 0
                }
            ]
        }
    ],
    "accessors" : [
        {
            "bufferView" : 0,
            "componentType" : 5126,
            "count" : 170,
            "max" : [
                0.10859580338001251,
                0.08731958270072937,
                0.0828162133693695
            ],
            "min" : [
                -0.07897047698497772,
                -0.11540590971708298,
                -0.05479411035776138
            ],
            "type" : "VEC3"
        },
        {
            "bufferView" : 1,
            "componentType" : 5126,
            "count" : 170,
            "type" : "VEC3"
        },
        {
            "bufferView" : 2,
            "componentType" : 5126,
            "count" : 170,
            "type" : "VEC2"
        },
        {
            "bufferView" : 3,
            "componentType" : 5123,
            "count" : 264,
            "type" : "SCALAR"
        },
        {
            "bufferView" : 4,
            "componentType" : 5126,
            "count" : 240,
            "max" : [
                0.37569698691368103,
                0.2705593705177307,
                0.8078030347824097
            ],
            "min" : [
                -0.3670636713504791,
                -0.2722652852535248,
                -0.7874819040298462
            ],
            "type" : "VEC3"
        },
        {
            "bufferView" : 5,
            "componentType" : 5126,
            "count" : 240,
            "type" : "VEC3"
        },
        {
            "bufferView" : 6,
            "componentType" : 5126,
            "count" : 240,
            "type" : "VEC2"
        },
        {
            "bufferView" : 7,
            "componentType" : 5123,
            "count" : 360,
            "type" : "SCALAR"
        },
        {
            "bufferView" : 8,
            "componentType" : 5126,
            "count" : 432,
            "max" : [
                0.4320140779018402,
                0.3130185008049011,
                0.873367190361023
            ],
            "min" : [
                -0.43029719591140747,
                -0.31472423672676086,
                -0.873505711555481
            ],
            "type" : "VEC3"
        },
        {
            "bufferView" : 9,
            "componentType" : 5126,
            "count" : 432,
            "type" : "VEC3"
        },
        {
            "bufferView" : 10,
            "componentType" : 5126,
            "count" : 432,
            "type" : "VEC2"
        },
        {
            "bufferView" : 11,
            "componentType" : 5123,
            "count" : 648,
            "type" : "SCALAR"
        }
    ],
    "bufferViews" : [
        {
            "buffer" : 0,
            "byteLength" : 2040,
            "byteOffset" : 0
        },
        {
            "buffer" : 0,
            "byteLength" : 2040,
            "byteOffset" : 2040
        },
        {
            "buffer" : 0,
            "byteLength" : 1360,
            "byteOffset" : 4080
        },
        {
            "buffer" : 0,
            "byteLength" : 528,
            "byteOffset" : 5440
        },
        {
            "buffer" : 0,
            "byteLength" : 2880,
            "byteOffset" : 5968
        },
        {
            "buffer" : 0,
            "byteLength" : 2880,
            "byteOffset" : 8848
        },
        {
            "buffer" : 0,
            "byteLength" : 1920,
            "byteOffset" : 11728
        },
        {
            "buffer" : 0,
            "byteLength" : 720,
            "byteOffset" : 13648
        },
        {
            "buffer" : 0,
            "byteLength" : 5184,
            "byteOffset" : 14368
        },
        {
            "buffer" : 0,
            "byteLength" : 5184,
            "byteOffset" : 19552
        },
        {
            "buffer" : 0,
            "byteLength" : 3456,
            "byteOffset" : 24736
        },
        {
            "buffer" : 0,
            "byteLength" : 1296,
            "byteOffset" : 28192
        }
    ],
    "buffers" : [
        {
            "byteLength" : 29488,
            "uri" : "Tee Trunk-shrinked.bin"
        }
    ]
}
